<?xml version="1.0" encoding="UTF-8" standalone="no"?>
<!DOCTYPE svg PUBLIC "-//W3C//DTD SVG 1.1//EN"
 "http://www.w3.org/Graphics/SVG/1.1/DTD/svg11.dtd">
<!-- Generated by graphviz version 14.0.2 (20251019.1705)
 -->
<!-- Title: &lt;lambda&gt;0 Pages: 1 -->
<svg width="2071pt" height="236pt"
 viewBox="0.00 0.00 2071.00 236.00" xmlns="http://www.w3.org/2000/svg" xmlns:xlink="http://www.w3.org/1999/xlink">
<g id="graph0" class="graph" transform="scale(1 1) rotate(0) translate(4 232)">
<title>&lt;lambda&gt;0</title>
<polygon fill="white" stroke="none" points="-4,4 -4,-232 2066.75,-232 2066.75,4 -4,4"/>
<!-- 68719476746 -->
<g id="node1" class="node">
<title>68719476746</title>
<polygon fill="none" stroke="black" points="1492.12,-228 1263.12,-228 1263.12,-170.5 1492.12,-170.5 1492.12,-228"/>
<text xml:space="preserve" text-anchor="start" x="1333.38" y="-210.7" font-family="Times,serif" font-size="14.00">IDENTIFIER, 6</text>
<text xml:space="preserve" text-anchor="start" x="1363.75" y="-194.2" font-family="Times,serif" font-size="14.00">input</text>
<text xml:space="preserve" text-anchor="start" x="1271.12" y="-177.7" font-family="Times,serif" font-size="14.00">if (input) { // Vulnerable: only blackl...</text>
</g>
<!-- 30064771084 -->
<g id="node2" class="node">
<title>30064771084</title>
<polygon fill="none" stroke="black" points="940.38,-134.5 772.88,-134.5 772.88,-93.5 940.38,-93.5 940.38,-134.5"/>
<text xml:space="preserve" text-anchor="start" x="786.12" y="-117.2" font-family="Times,serif" font-size="14.00">&lt;operator&gt;.assignment, 8</text>
<text xml:space="preserve" text-anchor="start" x="780.88" y="-100.7" font-family="Times,serif" font-size="14.00">const blacklist = /[;&amp;|$&lt;&gt;]/</text>
</g>
<!-- 68719476746&#45;&gt;30064771084 -->
<g id="edge1" class="edge">
<title>68719476746&#45;&gt;30064771084</title>
<path fill="none" stroke="black" d="M1262.88,-183.03C1179.31,-171.5 1063.14,-154.58 951.83,-134.85"/>
<polygon fill="black" stroke="black" points="952.68,-131.44 942.22,-133.13 951.45,-138.33 952.68,-131.44"/>
</g>
<!-- 30064771094 -->
<g id="node3" class="node">
<title>30064771094</title>
<polygon fill="none" stroke="black" points="1138.38,-134.5 958.88,-134.5 958.88,-93.5 1138.38,-93.5 1138.38,-134.5"/>
<text xml:space="preserve" text-anchor="start" x="1025.75" y="-117.2" font-family="Times,serif" font-size="14.00">send, 22</text>
<text xml:space="preserve" text-anchor="start" x="966.88" y="-100.7" font-family="Times,serif" font-size="14.00">res.send(&quot;No host provided.&quot;)</text>
</g>
<!-- 68719476746&#45;&gt;30064771094 -->
<g id="edge4" class="edge">
<title>68719476746&#45;&gt;30064771094</title>
<path fill="none" stroke="black" d="M1266.24,-170.07C1224.58,-159.52 1177.82,-147.69 1138.36,-137.71"/>
<polygon fill="black" stroke="black" points="1139.46,-134.37 1128.9,-135.31 1137.74,-141.16 1139.46,-134.37"/>
</g>
<!-- 30064771085 -->
<g id="node4" class="node">
<title>30064771085</title>
<polygon fill="none" stroke="black" points="1277.12,-134.5 1156.12,-134.5 1156.12,-93.5 1277.12,-93.5 1277.12,-134.5"/>
<text xml:space="preserve" text-anchor="start" x="1200.12" y="-117.2" font-family="Times,serif" font-size="14.00">test, 9</text>
<text xml:space="preserve" text-anchor="start" x="1164.12" y="-100.7" font-family="Times,serif" font-size="14.00">blacklist.test(input)</text>
</g>
<!-- 68719476746&#45;&gt;30064771085 -->
<g id="edge7" class="edge">
<title>68719476746&#45;&gt;30064771085</title>
<path fill="none" stroke="black" d="M1323.12,-170.07C1304.27,-160.32 1283.29,-149.47 1264.97,-140"/>
<polygon fill="black" stroke="black" points="1266.65,-136.93 1256.16,-135.44 1263.44,-143.15 1266.65,-136.93"/>
</g>
<!-- 30064771095 -->
<g id="node5" class="node">
<title>30064771095</title>
<polygon fill="none" stroke="black" points="1460.25,-134.5 1295,-134.5 1295,-93.5 1460.25,-93.5 1460.25,-134.5"/>
<text xml:space="preserve" text-anchor="start" x="1303" y="-117.2" font-family="Times,serif" font-size="14.00">&lt;operator&gt;.fieldAccess, 22</text>
<text xml:space="preserve" text-anchor="start" x="1355.5" y="-100.7" font-family="Times,serif" font-size="14.00">res.send</text>
</g>
<!-- 68719476746&#45;&gt;30064771095 -->
<g id="edge5" class="edge">
<title>68719476746&#45;&gt;30064771095</title>
<path fill="none" stroke="black" d="M1377.62,-170.07C1377.62,-162.36 1377.62,-153.97 1377.62,-146.11"/>
<polygon fill="black" stroke="black" points="1381.13,-146.26 1377.63,-136.26 1374.13,-146.26 1381.13,-146.26"/>
</g>
<!-- 30064771086 -->
<g id="node6" class="node">
<title>30064771086</title>
<polygon fill="none" stroke="black" points="1636.88,-134.5 1478.38,-134.5 1478.38,-93.5 1636.88,-93.5 1636.88,-134.5"/>
<text xml:space="preserve" text-anchor="start" x="1486.38" y="-117.2" font-family="Times,serif" font-size="14.00">&lt;operator&gt;.fieldAccess, 9</text>
<text xml:space="preserve" text-anchor="start" x="1523.5" y="-100.7" font-family="Times,serif" font-size="14.00">blacklist.test</text>
</g>
<!-- 68719476746&#45;&gt;30064771086 -->
<g id="edge6" class="edge">
<title>68719476746&#45;&gt;30064771086</title>
<path fill="none" stroke="black" d="M1438.56,-170.07C1459.94,-160.18 1483.77,-149.16 1504.46,-139.59"/>
<polygon fill="black" stroke="black" points="1505.67,-142.89 1513.27,-135.51 1502.73,-136.53 1505.67,-142.89"/>
</g>
<!-- 55834574856 -->
<g id="node9" class="node">
<title>55834574856</title>
<polygon fill="none" stroke="black" points="1810.75,-134.5 1654.5,-134.5 1654.5,-93.5 1810.75,-93.5 1810.75,-134.5"/>
<text xml:space="preserve" text-anchor="start" x="1662.5" y="-117.2" font-family="Times,serif" font-size="14.00">FIELD_IDENTIFIER, 22</text>
<text xml:space="preserve" text-anchor="start" x="1720.25" y="-100.7" font-family="Times,serif" font-size="14.00">send</text>
</g>
<!-- 68719476746&#45;&gt;55834574856 -->
<g id="edge2" class="edge">
<title>68719476746&#45;&gt;55834574856</title>
<path fill="none" stroke="black" d="M1492.39,-171.34C1541.24,-159.88 1597.36,-146.72 1643.06,-136"/>
<polygon fill="black" stroke="black" points="1643.74,-139.44 1652.67,-133.75 1642.14,-132.62 1643.74,-139.44"/>
</g>
<!-- 55834574853 -->
<g id="node10" class="node">
<title>55834574853</title>
<polygon fill="none" stroke="black" points="1978.38,-134.5 1828.88,-134.5 1828.88,-93.5 1978.38,-93.5 1978.38,-134.5"/>
<text xml:space="preserve" text-anchor="start" x="1836.88" y="-117.2" font-family="Times,serif" font-size="14.00">FIELD_IDENTIFIER, 9</text>
<text xml:space="preserve" text-anchor="start" x="1894.25" y="-100.7" font-family="Times,serif" font-size="14.00">test</text>
</g>
<!-- 68719476746&#45;&gt;55834574853 -->
<g id="edge3" class="edge">
<title>68719476746&#45;&gt;55834574853</title>
<path fill="none" stroke="black" d="M1492.54,-184.39C1579.22,-173.31 1701.23,-156.35 1817.37,-134.85"/>
<polygon fill="black" stroke="black" points="1817.91,-138.31 1827.1,-133.03 1816.63,-131.43 1817.91,-138.31"/>
</g>
<!-- 30064771087 -->
<g id="node7" class="node">
<title>30064771087</title>
<polygon fill="none" stroke="black" points="279.25,-49.25 0,-49.25 0,-8.25 279.25,-8.25 279.25,-49.25"/>
<text xml:space="preserve" text-anchor="start" x="116.75" y="-31.95" font-family="Times,serif" font-size="14.00">send, 10</text>
<text xml:space="preserve" text-anchor="start" x="8" y="-15.45" font-family="Times,serif" font-size="14.00">res.status(400).send(&quot;Invalid characters in hos...</text>
</g>
<!-- 30064771085&#45;&gt;30064771087 -->
<g id="edge17" class="edge">
<title>30064771085&#45;&gt;30064771087</title>
<path fill="none" stroke="black" d="M1155.84,-94.99C1153.08,-94.43 1150.33,-93.93 1147.62,-93.5 769.87,-33.07 667.72,-100.86 287.62,-57.5 274.1,-55.96 259.95,-53.89 245.99,-51.58"/>
<polygon fill="black" stroke="black" points="246.8,-48.17 236.35,-49.94 245.62,-55.07 246.8,-48.17"/>
</g>
<!-- 30064771092 -->
<g id="node8" class="node">
<title>30064771092</title>
<polygon fill="none" stroke="black" points="570.25,-49.25 297,-49.25 297,-8.25 570.25,-8.25 570.25,-49.25"/>
<text xml:space="preserve" text-anchor="start" x="410.75" y="-31.95" font-family="Times,serif" font-size="14.00">exec, 13</text>
<text xml:space="preserve" text-anchor="start" x="305" y="-15.45" font-family="Times,serif" font-size="14.00">exec(&quot;ping &quot; + input, (err, stdout, stderr) =&gt; ...</text>
</g>
<!-- 30064771085&#45;&gt;30064771092 -->
<g id="edge14" class="edge">
<title>30064771085&#45;&gt;30064771092</title>
<path fill="none" stroke="black" d="M1155.83,-95.06C1153.07,-94.49 1150.32,-93.96 1147.62,-93.5 898.29,-50.86 830.58,-89.18 579.62,-57.5 566.93,-55.9 553.67,-53.87 540.54,-51.65"/>
<polygon fill="black" stroke="black" points="541.5,-48.27 531.05,-50 540.3,-55.16 541.5,-48.27"/>
</g>
<!-- 30064771088 -->
<g id="node11" class="node">
<title>30064771088</title>
<polygon fill="none" stroke="black" points="779,-49.25 588.25,-49.25 588.25,-8.25 779,-8.25 779,-49.25"/>
<text xml:space="preserve" text-anchor="start" x="609" y="-31.95" font-family="Times,serif" font-size="14.00">&lt;operator&gt;.fieldAccess, 10</text>
<text xml:space="preserve" text-anchor="start" x="596.25" y="-15.45" font-family="Times,serif" font-size="14.00">(_tmp_1 = res.status(400)).send</text>
</g>
<!-- 30064771085&#45;&gt;30064771088 -->
<g id="edge16" class="edge">
<title>30064771085&#45;&gt;30064771088</title>
<path fill="none" stroke="black" d="M1155.81,-95.19C1153.05,-94.58 1150.32,-94.01 1147.62,-93.5 990.09,-63.58 946.41,-86.08 788.62,-57.5 780.65,-56.06 772.4,-54.32 764.18,-52.42"/>
<polygon fill="black" stroke="black" points="765.04,-49.02 754.5,-50.1 763.41,-55.83 765.04,-49.02"/>
</g>
<!-- 30064771093 -->
<g id="node12" class="node">
<title>30064771093</title>
<polygon fill="none" stroke="black" points="943.88,-49.25 797.38,-49.25 797.38,-8.25 943.88,-8.25 943.88,-49.25"/>
<text xml:space="preserve" text-anchor="start" x="805.38" y="-31.95" font-family="Times,serif" font-size="14.00">&lt;operator&gt;.addition, 13</text>
<text xml:space="preserve" text-anchor="start" x="829" y="-15.45" font-family="Times,serif" font-size="14.00">&quot;ping &quot; + input</text>
</g>
<!-- 30064771085&#45;&gt;30064771093 -->
<g id="edge11" class="edge">
<title>30064771085&#45;&gt;30064771093</title>
<path fill="none" stroke="black" d="M1155.75,-95.47C1153.01,-94.78 1150.29,-94.12 1147.62,-93.5 1061.79,-73.49 1037.92,-79.68 952.62,-57.5 947.44,-56.15 942.12,-54.64 936.78,-53.04"/>
<polygon fill="black" stroke="black" points="937.91,-49.73 927.32,-50.1 935.83,-56.41 937.91,-49.73"/>
</g>
<!-- 120259084288 -->
<g id="node13" class="node">
<title>120259084288</title>
<polygon fill="none" stroke="black" points="1235.25,-57.5 962,-57.5 962,0 1235.25,0 1235.25,-57.5"/>
<text xml:space="preserve" text-anchor="start" x="1043.5" y="-40.2" font-family="Times,serif" font-size="14.00">METHOD_REF, 13</text>
<text xml:space="preserve" text-anchor="start" x="1066.75" y="-23.7" font-family="Times,serif" font-size="14.00">&lt;lambda&gt;1</text>
<text xml:space="preserve" text-anchor="start" x="970" y="-7.2" font-family="Times,serif" font-size="14.00">exec(&quot;ping &quot; + input, (err, stdout, stderr) =&gt; ...</text>
</g>
<!-- 30064771085&#45;&gt;120259084288 -->
<g id="edge8" class="edge">
<title>30064771085&#45;&gt;120259084288</title>
<path fill="none" stroke="black" d="M1188.36,-93.06C1176.06,-84.38 1161.28,-73.95 1147.3,-64.09"/>
<polygon fill="black" stroke="black" points="1149.68,-61.49 1139.5,-58.58 1145.65,-67.21 1149.68,-61.49"/>
</g>
<!-- 30064771089 -->
<g id="node14" class="node">
<title>30064771089</title>
<polygon fill="none" stroke="black" points="1417.5,-49.25 1253.75,-49.25 1253.75,-8.25 1417.5,-8.25 1417.5,-49.25"/>
<text xml:space="preserve" text-anchor="start" x="1261.75" y="-31.95" font-family="Times,serif" font-size="14.00">&lt;operator&gt;.assignment, 10</text>
<text xml:space="preserve" text-anchor="start" x="1262.5" y="-15.45" font-family="Times,serif" font-size="14.00">(_tmp_1 = res.status(400))</text>
</g>
<!-- 30064771085&#45;&gt;30064771089 -->
<g id="edge13" class="edge">
<title>30064771085&#45;&gt;30064771089</title>
<path fill="none" stroke="black" d="M1245.13,-93.06C1261.02,-81.94 1281.02,-67.95 1298.16,-55.96"/>
<polygon fill="black" stroke="black" points="1299.93,-59 1306.11,-50.4 1295.91,-53.26 1299.93,-59"/>
</g>
<!-- 55834574855 -->
<g id="node15" class="node">
<title>55834574855</title>
<polygon fill="none" stroke="black" points="1591.75,-49.25 1435.5,-49.25 1435.5,-8.25 1591.75,-8.25 1591.75,-49.25"/>
<text xml:space="preserve" text-anchor="start" x="1443.5" y="-31.95" font-family="Times,serif" font-size="14.00">FIELD_IDENTIFIER, 10</text>
<text xml:space="preserve" text-anchor="start" x="1501.25" y="-15.45" font-family="Times,serif" font-size="14.00">send</text>
</g>
<!-- 30064771085&#45;&gt;55834574855 -->
<g id="edge9" class="edge">
<title>30064771085&#45;&gt;55834574855</title>
<path fill="none" stroke="black" d="M1277.55,-95.69C1280.28,-94.94 1282.98,-94.21 1285.62,-93.5 1348.08,-76.7 1364.46,-75.33 1426.62,-57.5 1431.69,-56.05 1436.91,-54.5 1442.16,-52.92"/>
<polygon fill="black" stroke="black" points="1442.94,-56.34 1451.47,-50.06 1440.89,-49.64 1442.94,-56.34"/>
</g>
<!-- 30064771090 -->
<g id="node16" class="node">
<title>30064771090</title>
<polygon fill="none" stroke="black" points="1705.38,-49.25 1609.88,-49.25 1609.88,-8.25 1705.38,-8.25 1705.38,-49.25"/>
<text xml:space="preserve" text-anchor="start" x="1631.75" y="-31.95" font-family="Times,serif" font-size="14.00">status, 10</text>
<text xml:space="preserve" text-anchor="start" x="1617.88" y="-15.45" font-family="Times,serif" font-size="14.00">res.status(400)</text>
</g>
<!-- 30064771085&#45;&gt;30064771090 -->
<g id="edge12" class="edge">
<title>30064771085&#45;&gt;30064771090</title>
<path fill="none" stroke="black" d="M1277.45,-95.23C1280.2,-94.61 1282.94,-94.03 1285.62,-93.5 1423.88,-66.25 1465.34,-96.91 1600.62,-57.5 1603.95,-56.53 1607.32,-55.38 1610.68,-54.11"/>
<polygon fill="black" stroke="black" points="1611.97,-57.36 1619.86,-50.28 1609.28,-50.9 1611.97,-57.36"/>
</g>
<!-- 30064771091 -->
<g id="node17" class="node">
<title>30064771091</title>
<polygon fill="none" stroke="black" points="1888.25,-49.25 1723,-49.25 1723,-8.25 1888.25,-8.25 1888.25,-49.25"/>
<text xml:space="preserve" text-anchor="start" x="1731" y="-31.95" font-family="Times,serif" font-size="14.00">&lt;operator&gt;.fieldAccess, 10</text>
<text xml:space="preserve" text-anchor="start" x="1780.5" y="-15.45" font-family="Times,serif" font-size="14.00">res.status</text>
</g>
<!-- 30064771085&#45;&gt;30064771091 -->
<g id="edge15" class="edge">
<title>30064771085&#45;&gt;30064771091</title>
<path fill="none" stroke="black" d="M1277.43,-95.13C1280.19,-94.54 1282.93,-93.99 1285.62,-93.5 1473.89,-59.33 1526.73,-93.61 1714.62,-57.5 1721.54,-56.17 1728.68,-54.51 1735.78,-52.68"/>
<polygon fill="black" stroke="black" points="1736.66,-56.06 1745.39,-50.06 1734.82,-49.31 1736.66,-56.06"/>
</g>
<!-- 55834574854 -->
<g id="node18" class="node">
<title>55834574854</title>
<polygon fill="none" stroke="black" points="2062.75,-49.25 1906.5,-49.25 1906.5,-8.25 2062.75,-8.25 2062.75,-49.25"/>
<text xml:space="preserve" text-anchor="start" x="1914.5" y="-31.95" font-family="Times,serif" font-size="14.00">FIELD_IDENTIFIER, 10</text>
<text xml:space="preserve" text-anchor="start" x="1969.25" y="-15.45" font-family="Times,serif" font-size="14.00">status</text>
</g>
<!-- 30064771085&#45;&gt;55834574854 -->
<g id="edge10" class="edge">
<title>30064771085&#45;&gt;55834574854</title>
<path fill="none" stroke="black" d="M1277.41,-95.05C1280.18,-94.48 1282.92,-93.96 1285.62,-93.5 1554.3,-48.18 1629.74,-107.29 1897.62,-57.5 1904.48,-56.23 1911.54,-54.57 1918.55,-52.7"/>
<polygon fill="black" stroke="black" points="1919.33,-56.12 1928,-50.03 1917.43,-49.38 1919.33,-56.12"/>
</g>
</g>
</svg>
