<?xml version="1.0" encoding="UTF-8" standalone="no"?>
<!DOCTYPE svg PUBLIC "-//W3C//DTD SVG 1.1//EN"
 "http://www.w3.org/Graphics/SVG/1.1/DTD/svg11.dtd">
<!-- Generated by graphviz version 14.0.2 (20251019.1705)
 -->
<!-- Title: &lt;lambda&gt;1 Pages: 1 -->
<svg width="2314pt" height="143pt"
 viewBox="0.00 0.00 2314.00 143.00" xmlns="http://www.w3.org/2000/svg" xmlns:xlink="http://www.w3.org/1999/xlink">
<g id="graph0" class="graph" transform="scale(1 1) rotate(0) translate(4 138.5)">
<title>&lt;lambda&gt;1</title>
<polygon fill="white" stroke="none" points="-4,4 -4,-138.5 2309.5,-138.5 2309.5,4 -4,4"/>
<!-- 30064771078 -->
<g id="node1" class="node">
<title>30064771078</title>
<polygon fill="none" stroke="black" points="202.75,-41 0,-41 0,0 202.75,0 202.75,-41"/>
<text xml:space="preserve" text-anchor="start" x="78.5" y="-23.7" font-family="Times,serif" font-size="14.00">send, 18</text>
<text xml:space="preserve" text-anchor="start" x="8" y="-7.2" font-family="Times,serif" font-size="14.00">res.send(`&lt;pre&gt;${stdout}&lt;/pre&gt;`)</text>
</g>
<!-- 68719476736 -->
<g id="node2" class="node">
<title>68719476736</title>
<polygon fill="none" stroke="black" points="1367.75,-134.5 1207,-134.5 1207,-77 1367.75,-77 1367.75,-134.5"/>
<text xml:space="preserve" text-anchor="start" x="1239.75" y="-117.2" font-family="Times,serif" font-size="14.00">IDENTIFIER, 14</text>
<text xml:space="preserve" text-anchor="start" x="1279.88" y="-100.7" font-family="Times,serif" font-size="14.00">err</text>
<text xml:space="preserve" text-anchor="start" x="1215" y="-84.2" font-family="Times,serif" font-size="14.00">if (err) { res.status(500)....</text>
</g>
<!-- 68719476736&#45;&gt;30064771078 -->
<g id="edge2" class="edge">
<title>68719476736&#45;&gt;30064771078</title>
<path fill="none" stroke="black" d="M1206.78,-103.17C1029.17,-99.01 590.57,-84.93 214.58,-41.31"/>
<polygon fill="black" stroke="black" points="215.04,-37.84 204.7,-40.16 214.22,-44.79 215.04,-37.84"/>
</g>
<!-- 30064771079 -->
<g id="node3" class="node">
<title>30064771079</title>
<polygon fill="none" stroke="black" points="386,-41 220.75,-41 220.75,0 386,0 386,-41"/>
<text xml:space="preserve" text-anchor="start" x="228.75" y="-23.7" font-family="Times,serif" font-size="14.00">&lt;operator&gt;.fieldAccess, 18</text>
<text xml:space="preserve" text-anchor="start" x="281.25" y="-7.2" font-family="Times,serif" font-size="14.00">res.send</text>
</g>
<!-- 68719476736&#45;&gt;30064771079 -->
<g id="edge5" class="edge">
<title>68719476736&#45;&gt;30064771079</title>
<path fill="none" stroke="black" d="M1206.62,-102.76C1051.41,-98.12 700.65,-83.65 397.34,-41.32"/>
<polygon fill="black" stroke="black" points="398,-37.88 387.61,-39.95 397.03,-44.82 398,-37.88"/>
</g>
<!-- 30064771080 -->
<g id="node4" class="node">
<title>30064771080</title>
<polygon fill="none" stroke="black" points="707,-41 403.75,-41 403.75,0 707,0 707,-41"/>
<text xml:space="preserve" text-anchor="start" x="477.38" y="-23.7" font-family="Times,serif" font-size="14.00">&lt;operator&gt;.formatString, 18</text>
<text xml:space="preserve" text-anchor="start" x="411.75" y="-7.2" font-family="Times,serif" font-size="14.00">&lt;operator&gt;.formatString(&quot;&lt;pre&gt;&quot;, stdout, &quot;&lt;/pre&gt;&quot;)</text>
</g>
<!-- 68719476736&#45;&gt;30064771080 -->
<g id="edge4" class="edge">
<title>68719476736&#45;&gt;30064771080</title>
<path fill="none" stroke="black" d="M1206.83,-96.04C1098.34,-84.24 898.94,-62.36 718.68,-41.38"/>
<polygon fill="black" stroke="black" points="719.23,-37.92 708.89,-40.24 718.42,-44.87 719.23,-37.92"/>
</g>
<!-- 30064771073 -->
<g id="node5" class="node">
<title>30064771073</title>
<polygon fill="none" stroke="black" points="986,-41 724.75,-41 724.75,0 986,0 986,-41"/>
<text xml:space="preserve" text-anchor="start" x="832.5" y="-23.7" font-family="Times,serif" font-size="14.00">send, 15</text>
<text xml:space="preserve" text-anchor="start" x="732.75" y="-7.2" font-family="Times,serif" font-size="14.00">res.status(500).send(&quot;Error executing ping.&quot;)</text>
</g>
<!-- 68719476736&#45;&gt;30064771073 -->
<g id="edge7" class="edge">
<title>68719476736&#45;&gt;30064771073</title>
<path fill="none" stroke="black" d="M1206.63,-89.19C1140.08,-76.36 1044.86,-58.02 970.35,-43.66"/>
<polygon fill="black" stroke="black" points="971.01,-40.22 960.53,-41.76 969.69,-47.09 971.01,-40.22"/>
</g>
<!-- 141733920768 -->
<g id="node6" class="node">
<title>141733920768</title>
<polygon fill="none" stroke="black" points="1094.88,-41 1003.88,-41 1003.88,0 1094.88,0 1094.88,-41"/>
<text xml:space="preserve" text-anchor="start" x="1011.88" y="-23.7" font-family="Times,serif" font-size="14.00">RETURN, 16</text>
<text xml:space="preserve" text-anchor="start" x="1033.25" y="-7.2" font-family="Times,serif" font-size="14.00">return</text>
</g>
<!-- 68719476736&#45;&gt;141733920768 -->
<g id="edge1" class="edge">
<title>68719476736&#45;&gt;141733920768</title>
<path fill="none" stroke="black" d="M1206.72,-76.76C1177.57,-66.62 1144.18,-54.97 1106.14,-41.61"/>
<polygon fill="black" stroke="black" points="1107.31,-38.31 1096.71,-38.3 1104.99,-44.92 1107.31,-38.31"/>
</g>
<!-- 55834574850 -->
<g id="node7" class="node">
<title>55834574850</title>
<polygon fill="none" stroke="black" points="1269.5,-41 1113.25,-41 1113.25,0 1269.5,0 1269.5,-41"/>
<text xml:space="preserve" text-anchor="start" x="1121.25" y="-23.7" font-family="Times,serif" font-size="14.00">FIELD_IDENTIFIER, 18</text>
<text xml:space="preserve" text-anchor="start" x="1179" y="-7.2" font-family="Times,serif" font-size="14.00">send</text>
</g>
<!-- 68719476736&#45;&gt;55834574850 -->
<g id="edge11" class="edge">
<title>68719476736&#45;&gt;55834574850</title>
<path fill="none" stroke="black" d="M1254.87,-76.57C1244.52,-67.59 1233.1,-57.68 1222.82,-48.77"/>
<polygon fill="black" stroke="black" points="1225.14,-46.15 1215.29,-42.24 1220.55,-51.44 1225.14,-46.15"/>
</g>
<!-- 30064771074 -->
<g id="node8" class="node">
<title>30064771074</title>
<polygon fill="none" stroke="black" points="1478.75,-41 1288,-41 1288,0 1478.75,0 1478.75,-41"/>
<text xml:space="preserve" text-anchor="start" x="1308.75" y="-23.7" font-family="Times,serif" font-size="14.00">&lt;operator&gt;.fieldAccess, 15</text>
<text xml:space="preserve" text-anchor="start" x="1296" y="-7.2" font-family="Times,serif" font-size="14.00">(_tmp_2 = res.status(500)).send</text>
</g>
<!-- 68719476736&#45;&gt;30064771074 -->
<g id="edge6" class="edge">
<title>68719476736&#45;&gt;30064771074</title>
<path fill="none" stroke="black" d="M1319.88,-76.57C1330.23,-67.59 1341.65,-57.68 1351.93,-48.77"/>
<polygon fill="black" stroke="black" points="1354.2,-51.44 1359.46,-42.24 1349.61,-46.15 1354.2,-51.44"/>
</g>
<!-- 30064771075 -->
<g id="node9" class="node">
<title>30064771075</title>
<polygon fill="none" stroke="black" points="1660.25,-41 1496.5,-41 1496.5,0 1660.25,0 1660.25,-41"/>
<text xml:space="preserve" text-anchor="start" x="1504.5" y="-23.7" font-family="Times,serif" font-size="14.00">&lt;operator&gt;.assignment, 15</text>
<text xml:space="preserve" text-anchor="start" x="1505.25" y="-7.2" font-family="Times,serif" font-size="14.00">(_tmp_2 = res.status(500))</text>
</g>
<!-- 68719476736&#45;&gt;30064771075 -->
<g id="edge9" class="edge">
<title>68719476736&#45;&gt;30064771075</title>
<path fill="none" stroke="black" d="M1368.05,-81.67C1408.57,-70.08 1457.52,-56.07 1498,-44.49"/>
<polygon fill="black" stroke="black" points="1498.81,-47.9 1507.46,-41.79 1496.88,-41.17 1498.81,-47.9"/>
</g>
<!-- 55834574849 -->
<g id="node10" class="node">
<title>55834574849</title>
<polygon fill="none" stroke="black" points="1834.5,-41 1678.25,-41 1678.25,0 1834.5,0 1834.5,-41"/>
<text xml:space="preserve" text-anchor="start" x="1686.25" y="-23.7" font-family="Times,serif" font-size="14.00">FIELD_IDENTIFIER, 15</text>
<text xml:space="preserve" text-anchor="start" x="1744" y="-7.2" font-family="Times,serif" font-size="14.00">send</text>
</g>
<!-- 68719476736&#45;&gt;55834574849 -->
<g id="edge12" class="edge">
<title>68719476736&#45;&gt;55834574849</title>
<path fill="none" stroke="black" d="M1368.09,-92.6C1443,-81.03 1557.84,-62.52 1666.94,-41.43"/>
<polygon fill="black" stroke="black" points="1667.53,-44.88 1676.68,-39.53 1666.19,-38.01 1667.53,-44.88"/>
</g>
<!-- 30064771076 -->
<g id="node11" class="node">
<title>30064771076</title>
<polygon fill="none" stroke="black" points="1948.12,-41 1852.62,-41 1852.62,0 1948.12,0 1948.12,-41"/>
<text xml:space="preserve" text-anchor="start" x="1874.5" y="-23.7" font-family="Times,serif" font-size="14.00">status, 15</text>
<text xml:space="preserve" text-anchor="start" x="1860.62" y="-7.2" font-family="Times,serif" font-size="14.00">res.status(500)</text>
</g>
<!-- 68719476736&#45;&gt;30064771076 -->
<g id="edge8" class="edge">
<title>68719476736&#45;&gt;30064771076</title>
<path fill="none" stroke="black" d="M1367.92,-100.96C1474.6,-94.74 1668.45,-79.25 1841.29,-41.21"/>
<polygon fill="black" stroke="black" points="1841.91,-44.66 1850.91,-39.06 1840.38,-37.83 1841.91,-44.66"/>
</g>
<!-- 30064771077 -->
<g id="node12" class="node">
<title>30064771077</title>
<polygon fill="none" stroke="black" points="2131,-41 1965.75,-41 1965.75,0 2131,0 2131,-41"/>
<text xml:space="preserve" text-anchor="start" x="1973.75" y="-23.7" font-family="Times,serif" font-size="14.00">&lt;operator&gt;.fieldAccess, 15</text>
<text xml:space="preserve" text-anchor="start" x="2023.25" y="-7.2" font-family="Times,serif" font-size="14.00">res.status</text>
</g>
<!-- 68719476736&#45;&gt;30064771077 -->
<g id="edge3" class="edge">
<title>68719476736&#45;&gt;30064771077</title>
<path fill="none" stroke="black" d="M1368.19,-100.1C1492.32,-92.29 1737.48,-74.22 1954.34,-41.38"/>
<polygon fill="black" stroke="black" points="1954.77,-44.86 1964.13,-39.89 1953.71,-37.94 1954.77,-44.86"/>
</g>
<!-- 55834574848 -->
<g id="node13" class="node">
<title>55834574848</title>
<polygon fill="none" stroke="black" points="2305.5,-41 2149.25,-41 2149.25,0 2305.5,0 2305.5,-41"/>
<text xml:space="preserve" text-anchor="start" x="2157.25" y="-23.7" font-family="Times,serif" font-size="14.00">FIELD_IDENTIFIER, 15</text>
<text xml:space="preserve" text-anchor="start" x="2212" y="-7.2" font-family="Times,serif" font-size="14.00">status</text>
</g>
<!-- 68719476736&#45;&gt;55834574848 -->
<g id="edge10" class="edge">
<title>68719476736&#45;&gt;55834574848</title>
<path fill="none" stroke="black" d="M1368.07,-102.64C1518.06,-97.86 1849.96,-83.27 2137.67,-41.29"/>
<polygon fill="black" stroke="black" points="2137.87,-44.8 2147.25,-39.88 2136.85,-37.88 2137.87,-44.8"/>
</g>
</g>
</svg>
